# xmcd CD database file
#
# Track frame offsets:
#	150
#	19098
#	75708
#	112845
#	150998
#	187943
#
# Disc length: 3073 seconds
#
# Revision: 0
# Processed by: cddbd v1.5.1PL2 Copyright (c) Steve Scherf et al.
# Submitted via: CDex 1.51
#
DISCID=330bff06
DTITLE=Jelly Roll Morton - Library of Congress Recordings, Vol. 1
DYEAR=1990
DGENRE=Jazz
TTITLE0=Mr. Jelly Lord
TTITLE1=Boyhood Memories
TTITLE2=The Jelly Roll Blues
TTITLE3=Alabama Bound
TTITLE4=King Porter stomp - You Can Have It
TTITLE5=Tiger Rag - Panama
EXTD=YEAR: 1990
EXTT0=
EXTT1=
EXTT2=
EXTT3=
EXTT4=
EXTT5=
PLAYORDER=
